<?xml version="1.0" encoding="UTF-8" standalone="no"?>
<!DOCTYPE svg PUBLIC "-//W3C//DTD SVG 1.1//EN" "http://www.w3.org/Graphics/SVG/1.1/DTD/svg11.dtd">
<svg width="100%" height="100%" viewBox="0 0 200 141" version="1.1" xmlns="http://www.w3.org/2000/svg" xmlns:xlink="http://www.w3.org/1999/xlink" xml:space="preserve" xmlns:serif="http://www.serif.com/" style="fill-rule:evenodd;clip-rule:evenodd;stroke-linejoin:round;stroke-miterlimit:2;">
    <g transform="matrix(1,0,0,1,-2223,0)">
        <g id="Artboard2" transform="matrix(0.994969,0,0,0.701453,10.6944,0)">
            <rect x="2223.49" y="0" width="201.011" height="201.011" style="fill:none;"/>
            <clipPath id="_clip1">
                <rect x="2223.49" y="0" width="201.011" height="201.011"/>
            </clipPath>
            <g clip-path="url(#_clip1)">
                <g transform="matrix(9.5758,0,0,13.5827,-1980.33,-27839.1)">
                    <path d="M452.634,2049.64L459.996,2057L458.595,2058.4L458.595,2058.4L452.634,2064.36C452.167,2063.89 451.7,2063.43 451.233,2062.96L456.195,2058L439.005,2058L439.005,2056L456.195,2056L451.233,2051.04C451.7,2050.57 452.167,2050.1 452.634,2049.64Z"/>
                </g>
            </g>
        </g>
    </g>
</svg>
