<svg
  xmlns:dc="http://purl.org/dc/elements/1.1/"
  xmlns:cc="http://creativecommons.org/ns#"
  xmlns:rdf="http://www.w3.org/1999/02/22-rdf-syntax-ns#"
  xmlns:svg="http://www.w3.org/2000/svg"
  xmlns="http://www.w3.org/2000/svg"
  viewBox="0 0 408 214.66667"
  height="31.56px"
  width="60px"
  xml:space="preserve"
  id="svg2"
  version="1.1"><metadata
    id="metadata8"><rdf:RDF><cc:Work
        rdf:about=""><dc:format>image/svg+xml</dc:format><dc:type
          rdf:resource="http://purl.org/dc/dcmitype/StillImage" /></cc:Work></rdf:RDF></metadata><defs
    id="defs6"><clipPath
      id="clipPath20"
      clipPathUnits="userSpaceOnUse"><path
        id="path18"
        d="M 2805.83,0 H 254.164 C 113.793,0 0,113.801 0,254.172 V 1355.83 C 0,1496.21 113.793,1610 254.164,1610 H 2805.83 C 2946.2,1610 3060,1496.21 3060,1355.83 V 254.172 C 3060,113.801 2946.2,0 2805.83,0 Z" /></clipPath><linearGradient
      id="linearGradient26"
      spreadMethod="pad"
      gradientTransform="matrix(0,1610,1610,0,1530,0)"
      gradientUnits="userSpaceOnUse"
      y2="0"
      x2="1"
      y1="0"
      x1="0"><stop
        id="stop22"
        offset="0"
        style="stop-opacity:1;stop-color:#3d3e3f" /><stop
        id="stop24"
        offset="1"
        style="stop-opacity:1;stop-color:#050606" /></linearGradient><clipPath
      id="clipPath44"
      clipPathUnits="userSpaceOnUse"><path
        id="path42"
        d="m 1118.75,1241.67 c 0,-102.18 -82.83,-185 -185,-185 -102.172,0 -185,82.82 -185,185 0,102.17 82.828,185 185,185 102.17,0 185,-82.83 185,-185 z" /></clipPath><radialGradient
      id="radialGradient52"
      spreadMethod="pad"
      gradientTransform="matrix(464.628,-389.869,-389.869,-464.628,783.333,1436.67)"
      gradientUnits="userSpaceOnUse"
      r="1"
      cy="0"
      cx="0"
      fy="-0.0029529301"
      fx="-0.0117617"><stop
        id="stop46"
        offset="0"
        style="stop-opacity:1;stop-color:#ee252c" /><stop
        id="stop48"
        offset="0.494975"
        style="stop-opacity:1;stop-color:#ef304c" /><stop
        id="stop50"
        offset="1"
        style="stop-opacity:1;stop-color:#9c41a6" /></radialGradient></defs><g
    transform="matrix(1.3333333,0,0,-1.3333333,0,214.66667)"
    id="g10"><g
      transform="scale(0.1)"
      id="g12"><g
        id="g14"><g
          clip-path="url(#clipPath20)"
          id="g16"><path
            id="path28"
            style="fill:url(#linearGradient26);fill-opacity:1;fill-rule:nonzero;stroke:none"
            d="M 2805.83,0 H 254.164 C 113.793,0 0,113.801 0,254.172 V 1355.83 C 0,1496.21 113.793,1610 254.164,1610 H 2805.83 C 2946.2,1610 3060,1496.21 3060,1355.83 V 254.172 C 3060,113.801 2946.2,0 2805.83,0" /></g></g><path
        id="path30"
        style="fill:#ffffff;fill-opacity:1;fill-rule:nonzero;stroke:none"
        d="M 1467.5,206.672 H 1260 V 1369.17 h 207.5 V 206.672" /><path
        id="path32"
        style="fill:#ffffff;fill-opacity:1;fill-rule:nonzero;stroke:none"
        d="M 1852.5,206.672 H 1645 v 769.996 h 207.5 V 206.672" /><path
        id="path34"
        style="fill:#ffffff;fill-opacity:1;fill-rule:nonzero;stroke:none"
        d="m 2782.5,206.672 -311.81,407.496 v 0 l 286.81,362.5 h -245 l -275,-351.68 V 1369.17 H 2030 V 206.672 h 207.5 V 602 l 275,-395.328 h 270" /><path
        id="path36"
        style="fill:#ffffff;fill-opacity:1;fill-rule:nonzero;stroke:none"
        d="m 731.25,405.422 c -102.859,0 -186.25,83.387 -186.25,186.25 0,102.855 83.391,186.246 186.25,186.246 102.859,0 186.25,-83.391 186.25,-186.246 0,-102.863 -83.391,-186.25 -186.25,-186.25 z m 0,579.996 c -67.383,0 -130.789,-16.957 -186.25,-46.789 V 1369.17 H 337.5 V 591.672 c 0,-217.461 176.289,-393.75 393.75,-393.75 217.461,0 393.75,176.289 393.75,393.75 0,217.457 -176.289,393.746 -393.75,393.746" /><g
        id="g38"><g
          clip-path="url(#clipPath44)"
          id="g40"><path
            id="path54"
            style="fill:url(#radialGradient52);fill-opacity:1;fill-rule:nonzero;stroke:none"
            d="m 1118.75,1241.67 c 0,-102.18 -82.83,-185 -185,-185 -102.172,0 -185,82.82 -185,185 0,102.17 82.828,185 185,185 102.17,0 185,-82.83 185,-185" />
        </g>
      </g>
    </g>
  </g>
</svg>