<?xml version="1.0" encoding="UTF-8" standalone="no"?>
<!DOCTYPE svg PUBLIC "-//W3C//DTD SVG 1.1//EN" "http://www.w3.org/Graphics/SVG/1.1/DTD/svg11.dtd">
<svg width="100%" height="100%" viewBox="0 0 512 512" version="1.1" xmlns="http://www.w3.org/2000/svg" xmlns:xlink="http://www.w3.org/1999/xlink" xml:space="preserve" xmlns:serif="http://www.serif.com/" style="fill-rule:evenodd;clip-rule:evenodd;stroke-linejoin:round;stroke-miterlimit:2;">
    <g id="Artboard3" transform="matrix(1.024,0,0,1.024,0,0)">
        <rect x="0" y="0" width="500" height="500" style="fill:none;"/>
        <clipPath id="_clip1">
            <rect x="0" y="0" width="500" height="500"/>
        </clipPath>
        <g clip-path="url(#_clip1)">
            <g transform="matrix(0.971942,0,0,0.971942,-2448.72,0.000501815)">
                <g transform="matrix(0.988647,0,0,0.988647,804.255,-193.891)">
                    <path d="M2004.07,196.117L2004.01,196.266C1986.87,241.028 1955.08,328.588 1939.67,441.439C1930.79,506.559 1932.92,566.824 1939.7,614.567C1946.95,665.638 1959.43,702.404 1966.5,716.185C1966.64,716.462 1966.65,716.459 1966.65,716.459C1966.45,716.188 1966.24,715.917 1966.04,715.645C1946.5,689.748 1892.96,574.592 1892.96,466.977C1892.96,314.919 1964.32,237.121 2003.63,196.56L2004.07,196.117Z" style="fill:rgb(70,185,105);"/>
                </g>
                <g transform="matrix(-0.954959,-0.255881,-0.121037,0.451716,4729.65,436.809)">
                    <path d="M2003.14,191.13C2003.14,191.13 2003.13,191.112 2003.08,191.279C1985.07,259.176 1973.64,356.671 1971.19,425.865C1968.88,491.005 1969.16,556.137 1986.75,651.54C1986.82,651.922 1986.89,652.22 1986.89,652.22C1986.68,651.95 1986.48,651.678 1986.27,651.407C1966.74,625.509 1915.84,534.447 1922.03,415.399C1928.42,292.569 1988.14,213.244 2002.71,191.573C2002.93,191.247 2003.14,191.13 2003.14,191.13Z" style="fill:rgb(70,185,105);"/>
                </g>
                <g transform="matrix(-0.954959,-0.255881,-0.121037,0.451716,4752.57,617.103)">
                    <path d="M1968.08,274.129C1968.08,274.129 1968.09,274.137 1968.03,274.278C1937.14,344.861 1931.18,410.084 1942.11,482.158C1950.19,535.472 1962.98,576.221 1977.33,610.56C1991.67,644.899 1995.47,651.364 1995.47,651.364C1995.03,650.987 1983.18,643.344 1976.04,636.743C1955.22,617.516 1925.4,576.886 1912.94,512.56C1890.46,396.524 1947.13,304.325 1962.84,280.955C1963.06,280.629 1968.08,274.129 1968.08,274.129Z" style="fill:rgb(70,185,105);"/>
                </g>
                <g transform="matrix(-0.954959,-0.255881,-0.121037,0.451716,4704.04,591.127)">
                    <path d="M1930.53,309.498C1930.53,309.498 1931.13,309.411 1931.03,315.488C1930.24,363.808 1932.09,439.213 1933.46,475.257C1937.84,590.056 1943.27,617.58 1946.53,636.541C1948.55,648.297 1951.75,660.541 1951.38,663.458C1951.29,664.212 1951.37,665.417 1949.93,663.175C1946.23,657.417 1941.18,646.442 1933.89,619.767C1924.4,585.008 1917.96,555.968 1913.08,512.324C1900.22,397.235 1924.66,327.123 1927.01,318.142C1929.67,307.944 1930.53,309.498 1930.53,309.498Z" style="fill:rgb(70,185,105);"/>
                </g>
            </g>
        </g>
    </g>
</svg>
