<?xml version="1.0" encoding="UTF-8" standalone="no"?>
<svg width="53px" height="31.55px" viewBox="0 0 809 480" version="1.1" xmlns="http://www.w3.org/2000/svg" xmlns:xlink="http://www.w3.org/1999/xlink" xml:space="preserve" xmlns:serif="http://www.serif.com/" style="fill-rule:evenodd;clip-rule:evenodd;stroke-linejoin:round;stroke-miterlimit:2;border-radius:2px;background:#265697;">
  <g transform="matrix(3.56667, 0, 0, 3.56667, 58, 38)">
    <rect x="0.259" y="0.678" width="192.756" height="192.756" fill="#265697"/>
    <g transform="matrix(1,0,0,1,0.362503,-39.5555)">
        <path d="M96.638,138.849C107.937,128.533 115.036,113.629 115.036,97.056C115.036,80.483 107.937,65.58 96.638,55.263C86.704,46.195 73.525,40.669 59.065,40.669C28.154,40.669 3.094,65.914 3.094,97.056C3.094,128.197 28.154,153.442 59.065,153.442C73.525,153.442 86.704,147.917 96.638,138.849Z" style="fill:rgb(0,157,221);"/>
    </g>
    <g transform="matrix(1,0,0,1,0.362503,-39.5555)">
        <path d="M134.21,40.669C119.749,40.669 106.57,46.195 96.638,55.263C94.613,57.111 92.724,59.108 90.986,61.233L102.285,61.233C103.832,63.125 105.259,65.118 106.554,67.204L86.719,67.204C85.53,69.121 84.451,71.113 83.493,73.175L109.777,73.175C110.676,75.107 111.472,77.099 112.151,79.145L81.122,79.145C80.476,81.089 79.932,83.082 79.497,85.115L113.777,85.115C114.6,88.965 115.036,92.959 115.036,97.056C115.036,103.317 114.022,109.34 112.151,114.967L81.122,114.967C81.802,117.012 82.594,119.005 83.493,120.937L109.777,120.937C108.818,122.998 107.743,124.992 106.554,126.908L86.719,126.908C88.013,128.993 89.44,130.988 90.985,132.878L102.285,132.878C100.547,135.003 98.661,137.001 96.638,138.849C106.57,147.917 119.749,153.442 134.21,153.442C165.121,153.442 190.181,128.197 190.181,97.056C190.181,65.914 165.121,40.669 134.21,40.669Z" style="fill:rgb(237,27,45);"/>
    </g>
    <g transform="matrix(1,0,0,1,0.362503,-39.5555)">
        <path d="M182.728,128.488C182.728,127.482 183.537,126.666 184.536,126.666C185.534,126.666 186.344,127.482 186.344,128.488C186.344,129.493 185.534,130.308 184.536,130.308C183.537,130.308 182.728,129.493 182.728,128.488ZM184.536,129.871C185.295,129.871 185.91,129.253 185.91,128.488C185.91,127.723 185.295,127.103 184.536,127.103C183.777,127.103 183.161,127.723 183.161,128.488C183.161,129.253 183.777,129.871 184.536,129.871ZM184.292,129.287L183.921,129.287L183.921,127.686L184.592,127.686C184.731,127.686 184.875,127.689 184.997,127.768C185.128,127.855 185.2,128.01 185.2,128.168C185.2,128.348 185.095,128.517 184.925,128.581L185.217,129.287L184.807,129.287L184.563,128.654L184.292,128.654L184.292,129.287L184.292,128.38L184.497,128.38C184.572,128.38 184.655,128.385 184.722,128.348C184.783,128.31 184.815,128.235 184.815,128.164C184.815,128.103 184.778,128.033 184.725,128.001C184.662,127.963 184.558,127.972 184.488,127.972L184.292,127.972L184.292,129.287Z" style="fill:rgb(237,27,45);"/>
    </g>
    <g transform="matrix(1,0,0,1,0.362503,-39.5555)">
        <path d="M170.891,109.277C170.891,108.272 171.701,107.455 172.699,107.455C173.697,107.455 174.506,108.272 174.506,109.277C174.506,110.283 173.697,111.098 172.699,111.098C171.701,111.098 170.891,110.283 170.891,109.277ZM172.699,110.66C173.457,110.66 174.072,110.041 174.072,109.277C174.072,108.512 173.457,107.893 172.699,107.893C171.94,107.893 171.325,108.512 171.325,109.277C171.325,110.041 171.94,110.66 172.699,110.66ZM172.454,110.075L172.084,110.075L172.084,108.476L172.755,108.476C172.894,108.476 173.038,108.479 173.159,108.558C173.29,108.645 173.362,108.8 173.362,108.957C173.362,109.137 173.258,109.307 173.087,109.37L173.38,110.075L172.969,110.075L172.726,109.444L172.454,109.444L172.454,110.075L172.454,109.169L172.659,109.169C172.735,109.169 172.819,109.175 172.884,109.137C172.946,109.099 172.978,109.024 172.978,108.954C172.978,108.893 172.94,108.822 172.888,108.791C172.824,108.753 172.72,108.762 172.651,108.762L172.454,108.762L172.454,110.075Z" style="fill:white;"/>
    </g>
    <g transform="matrix(1,0,0,1,0.362503,-39.5555)">
        <path d="M52.072,111.098L45.107,111.098L49.246,89.121L39.714,111.098L33.362,111.098L32.202,89.247L28.048,111.098L21.725,111.098L27.128,82.51L37.998,82.51L38.574,100.209L46.237,82.51L57.564,82.51L52.072,111.098Z" style="fill:white;"/>
    </g>
    <g transform="matrix(1,0,0,1,0.362503,-39.5555)">
        <path d="M129.923,110.812C128.016,111.339 126.526,111.567 124.917,111.567C121.352,111.567 119.407,109.766 119.407,106.461C119.407,105.807 119.479,105.111 119.613,104.375L120.036,102.1L120.362,100.26L123.591,82.508L130.519,82.508L129.515,87.847L133.07,87.847L132.114,93.499L128.544,93.499L126.709,103.199C126.627,103.625 126.589,103.944 126.589,104.162C126.589,105.362 127.31,105.885 128.967,105.885C129.76,105.885 130.375,105.812 130.845,105.668L129.923,110.812Z" style="fill:white;"/>
    </g>
    <g transform="matrix(1,0,0,1,0.362503,-39.5555)">
        <path d="M150.268,88.04C149.685,87.808 149.547,87.808 149.48,87.789C149.111,87.707 148.913,87.658 148.88,87.653C148.669,87.614 148.434,87.595 148.179,87.595C145.892,87.595 144.244,88.621 142.111,91.37L142.726,87.847L136.418,87.847L132.171,111.098L139.142,111.098C141.636,96.878 142.705,94.388 146.049,94.388C146.299,94.388 146.592,94.408 146.928,94.446L147.744,94.614L150.268,88.04Z" style="fill:white;"/>
    </g>
    <g transform="matrix(1,0,0,1,0.362503,-39.5555)">
        <path d="M102.309,95.194C102.309,98.131 103.951,100.155 107.675,101.674C110.529,102.841 110.97,103.184 110.97,104.239C110.97,105.687 109.712,106.339 106.926,106.339C104.821,106.339 102.866,106.054 100.608,105.42L99.642,110.783L99.955,110.837L101.246,111.073C101.661,111.146 102.275,111.214 103.087,111.277C104.763,111.407 106.061,111.47 106.974,111.47C114.41,111.47 117.846,109.016 117.846,103.712C117.846,100.522 116.41,98.65 112.878,97.241C109.923,96.065 109.582,95.804 109.582,94.719C109.582,93.466 110.754,92.822 113.031,92.822C114.415,92.822 116.303,92.953 118.096,93.17L119.099,87.789C117.274,87.538 114.507,87.333 112.898,87.333C105.014,87.333 102.284,90.905 102.309,95.194Z" style="fill:white;"/>
    </g>
    <g transform="matrix(1,0,0,1,0.362503,-39.5555)">
        <path d="M74.719,111.098L68.93,111.098L69.064,108.688C67.301,110.595 64.952,111.499 61.757,111.499C57.982,111.499 55.392,108.911 55.392,105.15C55.392,99.487 59.893,96.185 67.628,96.185C68.422,96.185 69.429,96.249 70.467,96.365C70.683,95.601 70.742,95.271 70.742,94.855C70.742,93.316 69.526,92.74 66.274,92.74C64.285,92.74 62.037,92.992 60.485,93.388L59.519,93.635L58.894,93.786L59.86,88.558C63.333,87.663 65.625,87.324 68.2,87.324C74.186,87.324 77.351,89.686 77.351,94.143C77.351,95.29 77.246,96.162 76.785,98.75L75.329,106.998L75.084,108.479L74.906,109.66L74.787,110.468L74.719,111.098ZM69.636,100.739C68.906,100.663 68.584,100.643 68.08,100.643C64.131,100.643 62.132,101.834 62.132,104.181C62.132,105.629 63.108,106.553 64.631,106.553C67.47,106.553 69.516,104.177 69.636,100.739Z" style="fill:white;"/>
    </g>
    <g transform="matrix(1,0,0,1,0.362503,-39.5555)">
        <path d="M97.572,110.595C95.185,111.233 92.875,111.543 90.433,111.538C82.646,111.534 78.587,107.961 78.587,101.123C78.587,93.142 83.751,87.266 90.761,87.266C96.496,87.266 100.157,90.557 100.157,95.717C100.157,97.43 99.908,99.1 99.302,101.456L85.452,101.456C85.399,101.815 85.385,101.974 85.385,102.187C85.385,104.883 87.45,106.257 91.496,106.257C93.984,106.257 96.233,105.803 98.73,104.787L97.572,110.595ZM93.862,96.762C93.9,96.277 93.919,95.881 93.919,95.576C93.919,93.688 92.698,92.58 90.624,92.58C88.408,92.58 86.823,94.066 86.18,96.747L93.862,96.762Z" style="fill:white;"/>
    </g>
    <g transform="matrix(1,0,0,1,0.362503,-39.5555)">
        <path d="M171.923,100.556C170.881,108.29 165.519,111.721 158.392,111.721C150.511,111.721 147.327,106.904 147.327,101.004C147.327,92.764 152.718,87.181 161.044,87.181C168.271,87.181 172.108,91.772 172.108,97.673C172.108,99.108 172.106,99.205 171.923,100.556ZM164.749,97.582C164.749,95.15 163.769,92.854 160.913,92.854C157.36,92.854 155.155,97.087 155.155,100.823C155.155,103.976 156.666,106.093 159.156,106.048C160.666,106.048 163.886,103.976 164.523,100.357C164.672,99.513 164.749,98.587 164.749,97.582Z" style="fill:white;"/>
    </g>
  </g>
</svg>